<svg width="16" height="16" viewBox="0 0 16 16" fill="none" xmlns="http://www.w3.org/2000/svg">
<g id="vuesax/outline/maximize-4">
<g id="maximize-4">
<path id="Vector" d="M14 6.5C13.7267 6.5 13.5 6.27333 13.5 6V2.5H10C9.72667 2.5 9.5 2.27333 9.5 2C9.5 1.72667 9.72667 1.5 10 1.5H14C14.2733 1.5 14.5 1.72667 14.5 2V6C14.5 6.27333 14.2733 6.5 14 6.5Z" fill="white"/>
<path id="Vector_2" d="M6 14.5H2C1.72667 14.5 1.5 14.2733 1.5 14V10C1.5 9.72667 1.72667 9.5 2 9.5C2.27333 9.5 2.5 9.72667 2.5 10V13.5H6C6.27333 13.5 6.5 13.7267 6.5 14C6.5 14.2733 6.27333 14.5 6 14.5Z" fill="white"/>
<path id="Vector_3" d="M8.9998 7.4998C8.87313 7.4998 8.74646 7.45313 8.64646 7.35313C8.45313 7.1598 8.45313 6.8398 8.64646 6.64647L13.6465 1.64646C13.8398 1.45313 14.1598 1.45313 14.3531 1.64646C14.5465 1.8398 14.5465 2.1598 14.3531 2.35313L9.35313 7.35313C9.25313 7.45313 9.12646 7.4998 8.9998 7.4998Z" fill="white"/>
<path id="Vector_4" d="M1.9998 14.4998C1.87313 14.4998 1.74646 14.4531 1.64646 14.3531C1.45313 14.1598 1.45313 13.8398 1.64646 13.6465L6.64647 8.64646C6.8398 8.45313 7.1598 8.45313 7.35313 8.64646C7.54646 8.8398 7.54646 9.1598 7.35313 9.35313L2.35313 14.3531C2.25313 14.4531 2.12646 14.4998 1.9998 14.4998Z" fill="white"/>
</g>
</g>
</svg>
